<svg width="24" height="24" fill="none" xmlns="http://www.w3.org/2000/svg"><g clip-path="url(#clip0_2_7)"><path d="M11.78 19.416c.594 0 1.083.45 1.146 1.026l.006.126v1.842a1.151 1.151 0 01-2.296.125l-.007-.125v-1.842c0-.636.516-1.152 1.152-1.152zm-5.399-2.235a1.15 1.15 0 01.09 1.527l-.09.1-1.302 1.303a1.152 1.152 0 01-1.718-1.527l.09-.1 1.302-1.303a1.15 1.15 0 011.628 0zm12.427 0l1.303 1.303a1.15 1.15 0 11-1.628 1.627L17.18 18.81a1.15 1.15 0 111.628-1.628zM11.781 5.879a5.909 5.909 0 015.901 5.902 5.909 5.909 0 01-5.901 5.902 5.908 5.908 0 01-5.902-5.902 5.908 5.908 0 015.902-5.902zm10.63 4.75a1.151 1.151 0 110 2.303h-1.843a1.15 1.15 0 110-2.303h1.842zm-19.418 0a1.151 1.151 0 01.126 2.296l-.125.007H1.15a1.15 1.15 0 01-.125-2.296l.125-.007h1.842zm1.985-7.268l.1.09 1.303 1.302a1.151 1.151 0 01-1.528 1.718l-.1-.09L3.45 5.08a1.15 1.15 0 011.528-1.72zm15.133.09a1.15 1.15 0 010 1.628L18.808 6.38a1.151 1.151 0 11-1.628-1.628l1.303-1.303a1.152 1.152 0 011.628 0zM11.781 0a1.15 1.15 0 011.151 1.151v1.843a1.152 1.152 0 01-2.303 0V1.15A1.152 1.152 0 0111.781 0z" fill="#fff"/></g><defs><clipPath id="clip0_2_7"><path fill="#fff" d="M0 0h24v24H0z"/></clipPath></defs></svg>